<?xml version="1.0" encoding="utf-8"?>
<!-- Generator: Adobe Illustrator 16.0.4, SVG Export Plug-In . SVG Version: 6.00 Build 0)  -->
<!DOCTYPE svg PUBLIC "-//W3C//DTD SVG 1.1//EN" "http://www.w3.org/Graphics/SVG/1.1/DTD/svg11.dtd">
<svg version="1.1" xmlns="http://www.w3.org/2000/svg" xmlns:xlink="http://www.w3.org/1999/xlink" x="0px" y="0px"
	 width="30.372px" height="32.727px" viewBox="0 0 30.372 32.727" enable-background="new 0 0 30.372 32.727" xml:space="preserve">
<g id="Layer_1" display="none">
</g>
<g id="Layer_2">
	<g>
		<path fill="#695ECC" d="M21.199,8.622c0,0-4.352-0.31-6.704,1.548c0.081-0.291,0.201-0.644,0.198-0.883
			c-0.055-3.647-0.338-8.268-0.338-8.268s-0.093-1.161-1.301-0.743C11.472,0.824,4.461,3.59,4.043,4.163c0,0-0.135,0.201-0.354,0.57
			C2.15,7.317-3.63,19.361,4.183,26.939c7.757,7.525,16.955,7.262,23.396,0.449C33.016,21.638,29.499,9.056,21.199,8.622z
			 M19.58,19.992c-0.266,0.74-0.99,1.158-1.618,0.933s-0.922-1.008-0.656-1.749c0.266-0.741,0.99-1.158,1.618-0.933
			S19.846,19.251,19.58,19.992z"/>
		<path fill="#6F57C9" d="M26.266,10.751l-1.474,1.99c3.933,12.325-7.058,12.097-7.058,12.097c-4.331-0.321-6.321-7.111-6.321-7.111
			l0.311-5.265l1.053-9.414L9.595,1.605C7.123,2.598,4.304,3.806,4.043,4.163c0,0-0.135,0.201-0.354,0.57
			C2.15,7.317-3.63,19.361,4.183,26.939c7.757,7.525,16.955,7.262,23.396,0.449C31.718,23.01,30.666,14.672,26.266,10.751z"/>
		<path fill="#2294D3" d="M22.376,20.018c0.14-3.252-2.385-4.862-4.908-3.902c-3.121,1.187-1.951,5.202-0.372,5.388
			c0,0-3.008-0.012-3.995-3.135c-0.986-3.124,1.164-7.895,1.401-8.204c-0.003,0.002-0.005,0.003-0.007,0.005
			c0.081-0.291,0.201-0.644,0.198-0.883c-0.011-0.717-0.03-1.471-0.056-2.22l-3.503,0.966c0,0-1.61,2.717-1.904,5.528
			c-0.358,3.424,0.65,6.178,1.532,7.664c0.883,1.486,2.896,3.654,6.101,3.654S22.236,23.27,22.376,20.018z M19.58,19.992
			c-0.266,0.74-0.99,1.158-1.618,0.933s-0.922-1.008-0.656-1.749c0.266-0.741,0.99-1.158,1.618-0.933S19.846,19.251,19.58,19.992z"
			/>
		<path fill="#EAE6D6" d="M4.477,6.516C5.158,6.64,5.716,5.827,5.716,5.827S5.158,8.126,7.14,8.994
			c1.982,0.867,3.995-0.96,3.995-0.96s0,2.353,1.114,2.725c1.028,0.342,2.216-1.029,2.42-1.241c0.016-0.083,0.025-0.162,0.024-0.23
			c-0.055-3.647-0.338-8.268-0.338-8.268s-0.093-1.161-1.301-0.743C11.472,0.824,4.461,3.59,4.043,4.163
			c0,0-0.041,0.062-0.112,0.175C3.974,5.337,4.106,6.449,4.477,6.516z"/>
		<path fill="#383087" d="M21.199,8.622c0,0-0.008,0-0.021-0.001c-0.306-0.019-4.41-0.238-6.677,1.544
			c-3.949,8.47,0.232,10.519,0.232,10.519s-4.095-4.475,0.968-8.516c5.188-3.112,8.749-0.17,10.452,2.029
			c2.133,2.753,4.118,10.111-3.53,14.694c-8.119,4.865-18.705-0.898-20.253-10.498c-0.537-3.327,0.149-6.712,1.161-8.617
			c1.579-2.973,2.184-3.948,2.184-3.948L4.039,4.168C4.038,4.17,4.035,4.174,4.034,4.176C4.03,4.182,4.026,4.188,4.021,4.197
			C4.02,4.199,4.019,4.2,4.018,4.201S4.015,4.206,4.014,4.208C4.003,4.224,3.989,4.245,3.974,4.27
			c-0.003,0.004-0.006,0.009-0.01,0.014c-0.038,0.06-0.09,0.143-0.153,0.247C3.805,4.54,3.8,4.549,3.794,4.558
			C3.761,4.611,3.727,4.669,3.688,4.733C2.15,7.317-3.63,19.361,4.183,26.939c7.757,7.525,16.955,7.262,23.396,0.449
			C33.016,21.638,29.499,9.056,21.199,8.622z"/>
		<path fill="#D6D2C1" d="M13.055,0.276C11.472,0.824,4.461,3.59,4.043,4.163c0,0-0.041,0.062-0.112,0.175
			c0.043,1,0.176,2.111,0.546,2.179C5.158,6.64,5.716,5.827,5.716,5.827l8.29-5.492C13.813,0.188,13.515,0.117,13.055,0.276z"/>
		<path fill="#2294D3" d="M10.856,7.879"/>
		<path fill="#8C7DEA" d="M22.376,20.018c0.14-3.252-2.385-4.862-4.908-3.902c-3.121,1.187-1.951,5.202-0.372,5.388
			c0,0-3.008-0.012-3.995-3.135c-0.986-3.124,1.164-7.895,1.401-8.204c-0.003,0.002-0.005,0.003-0.007,0.005
			c0.081-0.291,0.201-0.644,0.198-0.883c-0.011-0.717-0.03-1.471-0.056-2.22l-3.503,0.966c0,0-1.61,2.717-1.904,5.528
			c-0.358,3.424,0.65,6.178,1.532,7.664c0.883,1.486,2.896,3.654,6.101,3.654S22.236,23.27,22.376,20.018z M19.58,19.992
			c-0.266,0.74-0.99,1.158-1.618,0.933s-0.922-1.008-0.656-1.749c0.266-0.741,0.99-1.158,1.618-0.933S19.846,19.251,19.58,19.992z"
			/>
		<path fill="#F4F1E4" d="M14.693,9.288c-0.055-3.647-0.338-8.268-0.338-8.268S14.35,0.95,14.323,0.853l-0.317-0.517l-2.871,7.698
			c0,0-0.016,2.369,1.1,2.74c1.027,0.343,2.23-1.044,2.435-1.256C14.685,9.435,14.694,9.356,14.693,9.288z"/>
		<path fill="#4D4D4D" d="M14.355,1.02c0,0-0.091-1.093-1.205-0.771c-0.079,0.384-0.01,0.724,0.224,0.909
			c0.245,0.194,0.615,0.173,0.988-0.016C14.358,1.062,14.355,1.02,14.355,1.02z"/>
		<path fill="#746CD3" d="M22.376,20.018c0.14-3.252-2.385-4.862-4.908-3.902c-3.121,1.187-1.951,5.202-0.372,5.388
			c0,0-3.008-0.012-3.995-3.135c-0.271-0.859-0.304-1.844-0.206-2.826c-0.348,2.708-0.419,8.372,4.84,9.294h0.001
			C20.456,24.564,22.25,22.965,22.376,20.018z M19.58,19.992c-0.266,0.74-0.99,1.158-1.618,0.933s-0.922-1.008-0.656-1.749
			c0.266-0.741,0.99-1.158,1.618-0.933S19.846,19.251,19.58,19.992z"/>
		<path fill="#383087" d="M17.468,16.116c-0.114,0.043-0.221,0.091-0.323,0.142c-0.032,0.015-0.062,0.032-0.092,0.048
			c-0.071,0.038-0.139,0.077-0.204,0.117c-0.03,0.019-0.061,0.038-0.09,0.058c-0.067,0.045-0.131,0.092-0.192,0.141
			c-0.019,0.015-0.04,0.03-0.058,0.045c-0.078,0.065-0.15,0.132-0.218,0.202c-0.016,0.016-0.028,0.033-0.044,0.049
			c-0.051,0.056-0.1,0.112-0.146,0.17c-0.019,0.024-0.036,0.048-0.054,0.072c-0.04,0.056-0.078,0.112-0.113,0.169
			c-0.014,0.022-0.028,0.044-0.041,0.067c-0.093,0.161-0.168,0.328-0.226,0.499c-0.007,0.019-0.012,0.038-0.018,0.057
			c-0.022,0.07-0.042,0.14-0.058,0.21c-0.005,0.02-0.01,0.04-0.015,0.061c-0.017,0.081-0.031,0.162-0.042,0.244
			c-0.001,0.006-0.15,0.012-0.15,0.018c-0.023,0.186-0.17,0.373-0.17,0.558c0,0.009,0,0.018,0,0.027c0,0.088,0,0.175,0,0.262
			c0,0.002,0,0.005,0,0.007c0,0.279,0.266,0.549,0.359,0.798l0,0l0,0c0.283,0.743,0.875,1.301,1.44,1.368
			c0,0,1.731,0.056,2.396-1.237c-0.328,0.564-0.925,0.854-1.47,0.658c-0.346-0.124-0.58-0.418-0.685-0.78
			c-0.009-0.031-0.012-0.062-0.019-0.093c-0.002-0.009-0.002-0.017-0.004-0.026c-0.006-0.028-0.009-0.057-0.013-0.086
			c-0.002-0.013-0.003-0.025-0.005-0.038c-0.002-0.027-0.002-0.054-0.002-0.082c0-0.016,0-0.031,0-0.047c0-0.025,0-0.05,0-0.076
			c0-0.019-0.002-0.039-0.001-0.058c0.002-0.023,0.001-0.046,0.005-0.07c0.002-0.022,0.004-0.045,0.008-0.067
			c0.003-0.021,0.004-0.042,0.008-0.062c0.006-0.027,0.012-0.054,0.019-0.082c0.003-0.017,0.007-0.033,0.011-0.05
			c0.013-0.044,0.025-0.088,0.041-0.132c0.266-0.741,0.99-1.158,1.618-0.933c0.108,0.039,0.205,0.095,0.292,0.164
			c0.222,0.041,2.596,0.523,3.083,2.272l0.017-0.015c0.028-0.209,0.051-0.423,0.061-0.647
			C22.516,16.766,19.991,15.156,17.468,16.116z"/>
		<g>
			<path opacity="0" fill="#262470" d="M17.054,21.034c0.002,0,0.002,0,0.004,0C17.057,21.034,17.055,21.034,17.054,21.034z"/>
			<path fill="#262470" d="M17.468,16.116c-3.121,1.187-1.951,5.202-0.372,5.388c0,0,1.691,0.056,2.356-1.237
				c-0.328,0.564-0.945,0.854-1.49,0.658c-0.628-0.225-0.922-1.008-0.656-1.749C17.235,19.058,16.678,18.516,17.468,16.116z"/>
		</g>
		<path fill="#5144A0" d="M21.199,8.622c0,0-0.008,0-0.021-0.001c-0.306-0.019-4.41-0.238-6.677,1.544
			c-3.949,8.47,0.232,10.519,0.232,10.519s-4.095-4.475,0.968-8.516c5.188-3.112,8.749-0.17,10.452,2.029
			c2.133,2.753,4.118,10.111-3.53,14.694c-7.99,3.809-20.129,0.542-20.377-14.384c-0.434,8.733,3.068,14.096,9.613,17.28
			c5.634,1.852,11.318,0.255,15.718-4.398C33.016,21.638,29.499,9.056,21.199,8.622z"/>
		<g opacity="0.2">
			<path d="M14.502,10.165c-0.237,0.31-2.388,5.081-1.401,8.204c0.565,1.788,1.793,2.556,2.738,2.886
				c-0.351-0.358-4.178-3.513,2.377-12.488C16.952,8.956,15.536,9.352,14.502,10.165z"/>
		</g>
		<path opacity="0.2" d="M14.046,15.899c-0.022-2.189,1.824-5.297,2.855-6.859c-0.864,0.234-1.716,0.587-2.399,1.125
			c-0.237,0.31-2.388,5.081-1.401,8.204c0.565,1.788,1.793,2.556,2.738,2.886C14.188,20.123,14.076,18.934,14.046,15.899z"/>
		<g>
			<g>
				<path fill="#332B82" d="M13.533,0.186c0.756,0,0.822,0.834,0.822,0.834s0.283,4.621,0.338,8.268
					c0.003,0.239-0.117,0.592-0.198,0.883c1.764-1.394,4.651-1.568,5.986-1.568c0.445,0,0.718,0.02,0.718,0.02
					c8.3,0.434,11.816,13.016,6.379,18.766c-3.199,3.384-7.079,5.152-11.125,5.152c-4.099,0-8.367-1.814-12.271-5.602
					C-3.63,19.361,2.15,7.317,3.688,4.733c0.22-0.369,0.354-0.57,0.354-0.57c0.418-0.573,7.429-3.338,9.012-3.886
					C13.239,0.212,13.397,0.186,13.533,0.186 M18.313,20.986c0.526,0,1.05-0.39,1.267-0.994c0.266-0.741-0.028-1.523-0.656-1.749
					c-0.115-0.042-0.233-0.061-0.353-0.061c-0.525,0-1.049,0.389-1.266,0.994c-0.266,0.74,0.028,1.523,0.656,1.749
					C18.077,20.967,18.195,20.986,18.313,20.986 M13.533-0.186v0.372V-0.186c-0.185,0-0.387,0.038-0.6,0.111
					c-0.526,0.182-8.624,3.242-9.19,4.018c-0.009,0.012-0.147,0.219-0.374,0.6C0.481,9.395-3.118,20.375,3.924,27.206
					c3.849,3.733,8.181,5.707,12.529,5.707c4.196,0,8.137-1.822,11.396-5.269c2.853-3.017,3.533-8.132,1.695-12.727
					c-1.595-3.985-4.707-6.477-8.325-6.666c-0.001,0-0.282-0.02-0.737-0.02c-1.331,0-3.643,0.16-5.418,1.125
					c0.001-0.024,0.002-0.049,0.002-0.072c-0.055-3.615-0.336-8.24-0.339-8.287C14.693,0.583,14.402-0.186,13.533-0.186
					L13.533-0.186z M18.313,20.615c-0.077,0-0.153-0.013-0.227-0.039c-0.199-0.072-0.355-0.236-0.44-0.462
					c-0.093-0.248-0.09-0.536,0.009-0.812c0.158-0.44,0.535-0.748,0.916-0.748c0.078,0,0.154,0.013,0.228,0.039
					c0.199,0.072,0.355,0.235,0.44,0.462c0.093,0.248,0.09,0.536-0.009,0.812C19.072,20.307,18.695,20.615,18.313,20.615
					L18.313,20.615z"/>
			</g>
		</g>
		<path fill="none" stroke="#332B82" stroke-width="0.3716" stroke-miterlimit="10" d="M14.789,9.675c0,0-4.382,7.649-0.055,11.009
			c3.089,1.688,4.359-0.325,4.359-0.325"/>
	</g>
</g>
</svg>
